<svg width="16" height="16" viewBox="0 0 16 16" fill="none" xmlns="http://www.w3.org/2000/svg">
<path d="M14.5325 9.03038L8.53247 15.0304C8.46279 15.1003 8.38 15.1558 8.28883 15.1936C8.19767 15.2315 8.09993 15.251 8.00122 15.251C7.90251 15.251 7.80477 15.2315 7.7136 15.1936C7.62244 15.1558 7.53965 15.1003 7.46997 15.0304L1.46997 9.03038C1.36488 8.92542 1.29333 8.79161 1.26438 8.64593C1.23543 8.50025 1.25039 8.34926 1.30736 8.21209C1.36433 8.07492 1.46075 7.95775 1.58438 7.87545C1.70802 7.79314 1.85331 7.74939 2.00184 7.74976H4.25184V7.49976C4.25184 7.30085 4.33086 7.11008 4.47151 6.96943C4.61216 6.82878 4.80293 6.74976 5.00184 6.74976H11.0018C11.2008 6.74976 11.3915 6.82878 11.5322 6.96943C11.6728 7.11008 11.7518 7.30085 11.7518 7.49976V7.74976H14.0018C14.1503 7.74964 14.2954 7.79357 14.4188 7.87597C14.5423 7.95837 14.6385 8.07555 14.6953 8.21267C14.7521 8.34978 14.767 8.50068 14.738 8.64624C14.709 8.7918 14.6375 8.92549 14.5325 9.03038ZM11.0018 9.24976C10.8029 9.24976 10.6122 9.17074 10.4715 9.03009C10.3309 8.88944 10.2518 8.69867 10.2518 8.49976V8.24976H5.75184V8.49976C5.75184 8.69867 5.67282 8.88944 5.53217 9.03009C5.39152 9.17074 5.20075 9.24976 5.00184 9.24976H3.81434L8.00184 13.4373L12.1893 9.24976H11.0018ZM11.7518 2.49976C11.7518 2.30085 11.6728 2.11008 11.5322 1.96943C11.3915 1.82878 11.2008 1.74976 11.0018 1.74976H5.00184C4.80293 1.74976 4.61216 1.82878 4.47151 1.96943C4.33086 2.11008 4.25184 2.30085 4.25184 2.49976C4.25184 2.69867 4.33086 2.88944 4.47151 3.03009C4.61216 3.17074 4.80293 3.24976 5.00184 3.24976H11.0018C11.2008 3.24976 11.3915 3.17074 11.5322 3.03009C11.6728 2.88944 11.7518 2.69867 11.7518 2.49976ZM11.7518 4.99976C11.7518 4.80085 11.6728 4.61008 11.5322 4.46943C11.3915 4.32878 11.2008 4.24976 11.0018 4.24976H5.00184C4.80293 4.24976 4.61216 4.32878 4.47151 4.46943C4.33086 4.61008 4.25184 4.80085 4.25184 4.99976C4.25184 5.19867 4.33086 5.38944 4.47151 5.53009C4.61216 5.67074 4.80293 5.74976 5.00184 5.74976H11.0018C11.2008 5.74976 11.3915 5.67074 11.5322 5.53009C11.6728 5.38944 11.7518 5.19867 11.7518 4.99976Z" fill="#F57E77"/>
</svg>
