<svg width="16" height="16" viewBox="0 0 16 16" fill="none" xmlns="http://www.w3.org/2000/svg">
<path d="M14.5325 6.96962L8.53247 0.969615C8.46279 0.899695 8.38 0.844217 8.28883 0.806363C8.19767 0.768509 8.09993 0.749023 8.00122 0.749023C7.90251 0.749023 7.80477 0.768509 7.7136 0.806363C7.62244 0.844217 7.53965 0.899695 7.46997 0.969615L1.46997 6.96962C1.36488 7.07458 1.29333 7.20839 1.26438 7.35407C1.23543 7.49975 1.25039 7.65074 1.30736 7.78791C1.36433 7.92508 1.46075 8.04225 1.58438 8.12455C1.70802 8.20686 1.85331 8.25061 2.00184 8.25024H4.25184V8.50024C4.25184 8.69915 4.33086 8.88992 4.47151 9.03057C4.61216 9.17122 4.80293 9.25024 5.00184 9.25024H11.0018C11.2008 9.25024 11.3915 9.17122 11.5322 9.03057C11.6728 8.88992 11.7518 8.69915 11.7518 8.50024V8.25024H14.0018C14.1503 8.25036 14.2954 8.20643 14.4188 8.12403C14.5423 8.04163 14.6385 7.92445 14.6953 7.78733C14.7521 7.65022 14.767 7.49932 14.738 7.35376C14.709 7.2082 14.6375 7.07451 14.5325 6.96962ZM11.0018 6.75024C10.8029 6.75024 10.6122 6.82926 10.4715 6.96991C10.3309 7.11056 10.2518 7.30133 10.2518 7.50024V7.75024H5.75184V7.50024C5.75184 7.30133 5.67282 7.11056 5.53217 6.96991C5.39152 6.82926 5.20075 6.75024 5.00184 6.75024H3.81434L8.00184 2.56274L12.1893 6.75024H11.0018ZM11.7518 13.5002C11.7518 13.6992 11.6728 13.8899 11.5322 14.0306C11.3915 14.1712 11.2008 14.2502 11.0018 14.2502H5.00184C4.80293 14.2502 4.61216 14.1712 4.47151 14.0306C4.33086 13.8899 4.25184 13.6992 4.25184 13.5002C4.25184 13.3013 4.33086 13.1106 4.47151 12.9699C4.61216 12.8293 4.80293 12.7502 5.00184 12.7502H11.0018C11.2008 12.7502 11.3915 12.8293 11.5322 12.9699C11.6728 13.1106 11.7518 13.3013 11.7518 13.5002ZM11.7518 11.0002C11.7518 11.1992 11.6728 11.3899 11.5322 11.5306C11.3915 11.6712 11.2008 11.7502 11.0018 11.7502H5.00184C4.80293 11.7502 4.61216 11.6712 4.47151 11.5306C4.33086 11.3899 4.25184 11.1992 4.25184 11.0002C4.25184 10.8013 4.33086 10.6106 4.47151 10.4699C4.61216 10.3293 4.80293 10.2502 5.00184 10.2502H11.0018C11.2008 10.2502 11.3915 10.3293 11.5322 10.4699C11.6728 10.6106 11.7518 10.8013 11.7518 11.0002Z" fill="#24BC73"/>
</svg>
