<svg width="15" height="15" viewBox="0 0 15 15" fill="none" xmlns="http://www.w3.org/2000/svg">
<path d="M8.88757 13.5188C8.15007 13.5188 7.10632 13.0001 6.28132 10.5188L5.83132 9.16884L4.48132 8.71884C2.00632 7.89384 1.48757 6.85009 1.48757 6.11259C1.48757 5.38134 2.00632 4.33134 4.48132 3.50009L9.78757 1.73134C11.1126 1.28759 12.2188 1.41884 12.9001 2.09384C13.5813 2.76884 13.7126 3.88134 13.2688 5.20634L11.5001 10.5126C10.6688 13.0001 9.62507 13.5188 8.88757 13.5188ZM4.77507 4.39384C3.03757 4.97509 2.41882 5.66259 2.41882 6.11259C2.41882 6.56259 3.03757 7.25009 4.77507 7.82509L6.35007 8.35009C6.48757 8.39384 6.60007 8.50634 6.64382 8.64384L7.16882 10.2188C7.74382 11.9563 8.43757 12.5751 8.88757 12.5751C9.33757 12.5751 10.0251 11.9563 10.6063 10.2188L12.3751 4.91259C12.6938 3.95009 12.6376 3.16259 12.2313 2.75634C11.8251 2.35009 11.0376 2.30009 10.0813 2.61884L4.77507 4.39384Z" fill="white"/>
<path d="M6.31873 8.99992C6.19998 8.99992 6.08123 8.95617 5.98748 8.86242C5.80623 8.68117 5.80623 8.38117 5.98748 8.19992L8.22498 5.95617C8.40623 5.77492 8.70623 5.77492 8.88748 5.95617C9.06873 6.13742 9.06873 6.43742 8.88748 6.61867L6.64998 8.86242C6.56248 8.95617 6.43748 8.99992 6.31873 8.99992Z" fill="white"/>
</svg>
