<svg width="24" height="24" viewBox="0 0 24 24" fill="none" xmlns="http://www.w3.org/2000/svg">
<path d="M4.18457 2.42822H4.18848C6.29868 2.60166 9.54249 3.67598 11.3555 4.8042L11.3613 4.80811L11.3682 4.81201L11.6074 4.95166L11.6348 4.96729L11.6631 4.97998C11.7758 5.0282 11.8996 5.04423 11.9922 5.04639C12.0438 5.04757 12.1051 5.0451 12.1689 5.03369C12.224 5.02383 12.3133 5.00031 12.4043 4.94287L12.4053 4.94385L12.5645 4.84424L12.5654 4.84326C13.202 4.44424 14.0116 4.0471 14.9111 3.68506L14.9121 3.68604C14.9854 3.65735 15.0741 3.66413 15.1523 3.71631C15.2204 3.76172 15.2598 3.83424 15.2598 3.92041V7.53076L16.0361 7.01709L16.8662 6.46729L16.8711 6.46338C16.9514 6.40886 17.0584 6.40879 17.1387 6.46338L17.1436 6.46729L17.9736 7.01709L18.75 7.53076V2.77979C18.7501 2.66286 18.8368 2.55415 18.957 2.52979C19.2259 2.4837 19.4883 2.44877 19.7197 2.43018H19.8398L19.8604 2.42822C20.4517 2.37962 21.0634 2.58279 21.5195 3.00635L21.5225 3.00928C21.9848 3.43103 22.2402 4.01568 22.2402 4.67041V16.7397C22.2402 17.8283 21.3468 18.834 20.2793 18.9634L19.9492 19.0034L19.9443 19.0044C17.8215 19.2827 14.462 20.3924 12.5781 21.4321L12.5645 21.4399L12.5518 21.4478C12.433 21.5233 12.2332 21.5796 12 21.5796C11.7741 21.5796 11.5603 21.5268 11.3945 21.4341L11.3896 21.4312L11.0127 21.2339C9.05475 20.2484 5.99723 19.2657 4.00684 19.0044H4.00781L3.71777 18.9644L3.70996 18.9634C2.65438 18.8342 1.75977 17.8203 1.75977 16.7397V4.65967L1.77148 4.41748C1.82663 3.86155 2.07225 3.36843 2.47656 2.99951C2.94227 2.57465 3.54354 2.37081 4.18457 2.42822ZM3.97949 2.90967C3.53941 2.90972 3.12813 3.06375 2.80273 3.36084L2.80078 3.36182C2.43997 3.69384 2.25008 4.16137 2.25 4.65967V16.7397C2.25 17.177 2.43619 17.5808 2.7002 17.8813C2.9638 18.1814 3.33759 18.4157 3.76074 18.4751L3.76367 18.4761L4.06348 18.5161C6.25245 18.808 9.6434 19.9178 11.5889 20.9878L11.6074 20.9985L11.627 21.0073C11.7318 21.0538 11.8409 21.0765 11.9297 21.0854C11.9962 21.0921 12.143 21.1012 12.2852 21.0444L12.3145 21.0327L12.3418 21.0181C14.2954 19.9392 17.6904 18.8201 19.8887 18.5269L20.2285 18.4868L20.2305 18.4858C20.6603 18.4331 21.0365 18.1954 21.2998 17.894C21.5635 17.5922 21.7499 17.1867 21.75 16.7505V4.68018C21.75 4.2385 21.6012 3.83774 21.3301 3.52002L21.2061 3.38916L21.1982 3.38232L21.0566 3.26611C20.7208 3.02046 20.3062 2.91318 19.8994 2.93018H19.2598V8.00049C19.2596 8.09525 19.2119 8.17313 19.1289 8.21631C19.0562 8.25411 18.9876 8.25706 18.9297 8.23682L18.875 8.20947L18.8662 8.20361L17.2861 7.15381L17.0098 6.96924L16.7334 7.15381L15.1562 8.20166C15.0737 8.25529 14.9776 8.25978 14.8936 8.21729C14.808 8.16889 14.7599 8.08428 14.7598 8.00049V4.26904L14.04 4.62061C13.5995 4.83577 13.1985 5.05234 12.8467 5.25928H12.8457L12.835 5.26611L12.6768 5.36475C12.2848 5.60702 11.7088 5.60281 11.3438 5.37549H11.3428L11.1045 5.22607H11.1055C10.2149 4.66751 8.98153 4.13304 7.7334 3.71826C6.48535 3.30352 5.18408 2.996 4.15039 2.91162L4.12988 2.90967H3.97949Z" fill="#292D32" stroke="#1F1F22"/>
<path d="M12 21.24C11.59 21.24 11.25 20.9 11.25 20.49V5.48999C11.25 5.07999 11.59 4.73999 12 4.73999C12.41 4.73999 12.75 5.07999 12.75 5.48999V20.49C12.75 20.91 12.41 21.24 12 21.24Z" fill="#292D32"/>
<path d="M19 8.74999C18.85 8.74999 18.71 8.70998 18.58 8.61998L17 7.57L15.42 8.61998C15.19 8.76998 14.9 8.78996 14.65 8.65996C14.41 8.52996 14.25 8.27999 14.25 7.99999V3.91997C14.25 3.60997 14.44 3.33996 14.72 3.21996C16.1 2.66996 17.61 2.23997 18.88 2.03997C19.1 1.99997 19.32 2.07001 19.49 2.21001C19.66 2.35001 19.75 2.56002 19.75 2.78002V7.99999C19.75 8.27999 19.6 8.52996 19.35 8.65996C19.24 8.71996 19.12 8.74999 19 8.74999ZM17 5.91997C17.14 5.91997 17.29 5.95998 17.42 6.04998L18.25 6.59996V3.68999C17.45 3.86999 16.58 4.12999 15.75 4.43999V6.59996L16.58 6.04998C16.71 5.95998 16.86 5.91997 17 5.91997Z" fill="#292D32"/>
</svg>
