<svg width="28" height="28" viewBox="0 0 28 28" fill="none" xmlns="http://www.w3.org/2000/svg">
<path d="M14 12.2733C13.5217 12.2733 13.125 11.8767 13.125 11.3983V7.51334C13.125 7.035 13.5217 6.63834 14 6.63834C14.4783 6.63834 14.875 7.035 14.875 7.51334V11.3983C14.875 11.8883 14.4783 12.2733 14 12.2733Z" fill="black"/>
<path d="M14.0233 23.7417C11.0133 23.7417 8.01493 23.2633 5.15659 22.3067C4.09493 21.9567 3.28993 21.1983 2.93993 20.2417C2.58993 19.285 2.70659 18.1883 3.27826 17.2317L4.75993 14.7583C5.08659 14.21 5.37826 13.1833 5.37826 12.5417V10.0917C5.37826 5.31999 9.25159 1.44666 14.0233 1.44666C18.7949 1.44666 22.6683 5.31999 22.6683 10.0917V12.5417C22.6683 13.1717 22.9599 14.21 23.2866 14.7583L24.7683 17.2317C25.3166 18.1417 25.4099 19.2267 25.0483 20.2183C24.6866 21.21 23.8933 21.9683 22.8899 22.3067C20.0316 23.275 17.0333 23.7417 14.0233 23.7417ZM14.0233 3.20832C10.2199 3.20832 7.12826 6.29999 7.12826 10.1033V12.5533C7.12826 13.4983 6.75493 14.8633 6.26493 15.6683L4.78326 18.1533C4.47993 18.655 4.40993 19.1917 4.58493 19.6583C4.75993 20.125 5.15659 20.475 5.71659 20.6617C11.0833 22.4467 16.9866 22.4467 22.3533 20.6617C22.8549 20.4983 23.2399 20.125 23.4149 19.635C23.6016 19.145 23.5433 18.6083 23.2749 18.1533L21.7933 15.68C21.3033 14.875 20.9299 13.51 20.9299 12.565V10.115C20.9183 6.29999 17.8266 3.20832 14.0233 3.20832Z" fill="black"/>
<path d="M14 26.7167C12.7517 26.7167 11.5267 26.2033 10.64 25.3167C9.75332 24.43 9.23999 23.205 9.23999 21.9567H10.99C10.99 22.75 11.3167 23.52 11.8767 24.08C12.4367 24.64 13.2067 24.9667 14 24.9667C15.6567 24.9667 17.01 23.6133 17.01 21.9567H18.76C18.76 24.5817 16.625 26.7167 14 26.7167Z" fill="black"/>
</svg>
