<svg width="20" height="20" viewBox="0 0 20 20" fill="none" xmlns="http://www.w3.org/2000/svg">
<path d="M10.0001 18.9583C5.05841 18.9583 1.04175 14.9417 1.04175 9.99999C1.04175 5.05832 5.05841 1.04166 10.0001 1.04166C14.9417 1.04166 18.9584 5.05832 18.9584 9.99999C18.9584 14.9417 14.9417 18.9583 10.0001 18.9583ZM10.0001 2.29166C5.75008 2.29166 2.29175 5.74999 2.29175 9.99999C2.29175 14.25 5.75008 17.7083 10.0001 17.7083C14.2501 17.7083 17.7084 14.25 17.7084 9.99999C17.7084 5.74999 14.2501 2.29166 10.0001 2.29166Z" fill="black"/>
<path d="M7.49995 18.125H6.66662C6.32495 18.125 6.04162 17.8417 6.04162 17.5C6.04162 17.1583 6.30828 16.8833 6.64995 16.875C5.34162 12.4083 5.34162 7.59167 6.64995 3.125C6.30828 3.11667 6.04162 2.84167 6.04162 2.5C6.04162 2.15833 6.32495 1.875 6.66662 1.875H7.49995C7.69995 1.875 7.89162 1.975 8.00828 2.13333C8.12495 2.3 8.15828 2.50833 8.09162 2.7C6.52495 7.40833 6.52495 12.5917 8.09162 17.3083C8.15828 17.5 8.12495 17.7083 8.00828 17.875C7.89162 18.025 7.69995 18.125 7.49995 18.125Z" fill="black"/>
<path d="M12.5 18.125C12.4333 18.125 12.3667 18.1167 12.3 18.0917C11.975 17.9833 11.7917 17.625 11.9083 17.3C13.475 12.5917 13.475 7.40832 11.9083 2.69165C11.8 2.36665 11.975 2.00832 12.3 1.89999C12.6333 1.79165 12.9833 1.96665 13.0917 2.29165C14.75 7.25832 14.75 12.725 13.0917 17.6833C13.0083 17.9583 12.7583 18.125 12.5 18.125Z" fill="black"/>
<path d="M10 14.3333C7.675 14.3333 5.35833 14.0083 3.125 13.35C3.11667 13.6833 2.84167 13.9583 2.5 13.9583C2.15833 13.9583 1.875 13.675 1.875 13.3333V12.5C1.875 12.3 1.975 12.1083 2.13333 11.9917C2.3 11.875 2.50833 11.8417 2.7 11.9083C7.40833 13.475 12.6 13.475 17.3083 11.9083C17.5 11.8417 17.7083 11.875 17.875 11.9917C18.0417 12.1083 18.1333 12.3 18.1333 12.5V13.3333C18.1333 13.675 17.85 13.9583 17.5083 13.9583C17.1667 13.9583 16.8917 13.6917 16.8833 13.35C14.6417 14.0083 12.325 14.3333 10 14.3333Z" fill="black"/>
<path d="M17.4999 8.125C17.4332 8.125 17.3666 8.11666 17.2999 8.09166C12.5916 6.525 7.3999 6.525 2.69157 8.09166C2.35823 8.2 2.00823 8.025 1.8999 7.7C1.7999 7.36666 1.9749 7.01666 2.2999 6.90833C7.26657 5.25 12.7332 5.25 17.6916 6.90833C18.0166 7.01666 18.1999 7.375 18.0832 7.7C18.0082 7.95833 17.7582 8.125 17.4999 8.125Z" fill="black"/>
</svg>
