<svg width="12" height="12" viewBox="0 0 12 12" fill="none" xmlns="http://www.w3.org/2000/svg">
<path d="M7.45 11.375H4.55C4.105 11.375 3.535 11.14 3.225 10.825L1.175 8.77499C0.860003 8.45999 0.625 7.89 0.625 7.45V4.55C0.625 4.105 0.860003 3.53501 1.175 3.22501L3.225 1.175C3.54 0.860003 4.11 0.625 4.55 0.625H7.45C7.895 0.625 8.465 0.860003 8.775 1.175L10.825 3.22501C11.14 3.54001 11.375 4.11 11.375 4.55V7.45C11.375 7.895 11.14 8.46499 10.825 8.77499L8.775 10.825C8.46 11.14 7.895 11.375 7.45 11.375ZM4.55 1.375C4.305 1.375 3.925 1.53 3.755 1.705L1.705 3.755C1.535 3.93 1.375 4.305 1.375 4.55V7.45C1.375 7.695 1.53 8.075 1.705 8.245L3.755 10.295C3.93 10.465 4.305 10.625 4.55 10.625H7.45C7.695 10.625 8.075 10.47 8.245 10.295L10.295 8.245C10.465 8.06999 10.625 7.695 10.625 7.45V4.55C10.625 4.305 10.47 3.925 10.295 3.755L8.245 1.705C8.07 1.535 7.695 1.375 7.45 1.375H4.55Z" fill="#EA4335"/>
<path d="M4.24997 8.12497C4.15497 8.12497 4.05997 8.08997 3.98497 8.01497C3.83997 7.86997 3.83997 7.62997 3.98497 7.48497L7.48497 3.98497C7.62997 3.83997 7.86997 3.83997 8.01497 3.98497C8.15997 4.12997 8.15997 4.36997 8.01497 4.51497L4.51497 8.01497C4.43997 8.08997 4.34497 8.12497 4.24997 8.12497Z" fill="#EA4335"/>
<path d="M7.74997 8.12497C7.65497 8.12497 7.55997 8.08997 7.48497 8.01497L3.98497 4.51497C3.83997 4.36997 3.83997 4.12997 3.98497 3.98497C4.12997 3.83997 4.36997 3.83997 4.51497 3.98497L8.01497 7.48497C8.15997 7.62997 8.15997 7.86997 8.01497 8.01497C7.93997 8.08997 7.84497 8.12497 7.74997 8.12497Z" fill="#EA4335"/>
</svg>
